<?xml version="1.0" encoding="utf-8"?>
<!-- Generator: Adobe Illustrator 18.1.1, SVG Export Plug-In . SVG Version: 6.00 Build 0)  -->
<svg version="1.1" id="Layer_1" xmlns="http://www.w3.org/2000/svg" xmlns:xlink="http://www.w3.org/1999/xlink" x="0px" y="0px"
	 viewBox="0 0 1920 1080" enable-background="new 0 0 1920 1080" xml:space="preserve">
<rect fill="#1A1A1A" width="1920" height="1080"/>
<path opacity="0.62" fill="#262626" d="M1970.6,1297c-161.5-41.6-363.2-103-575.9-190.8C853.3,882.8,240.8,488.8,38.6-183.3
	L176.6-217c0,0,186.3,460.2,624,828.9c52.4,44.1,108.4,86.9,168,127.5c226.7,154.1,473.5,288.5,741.7,405.3
	C1806.8,1205.3,1895.4,1256.1,1970.6,1297z"/>
<path opacity="0.62" fill="#2D2D2D" d="M2423.1,1318.5c0,0-146-9.1-367.7-48.6c-78-35-170.2-79-271-132.1
	C1986.4,1208.1,2199.1,1268.1,2423.1,1318.5z"/>
<path opacity="0.62" fill="#1E1E1E" d="M1710.3,1144.7c-268.2-116.8-515-251.3-741.7-405.3c-59.7-40.6-115.7-83.4-168-127.5
	C430.1,197,293.3-211.5,293.3-211.5l146.7,16C708.2,424.6,1286.1,878.7,1710.3,1144.7z"/>
<path opacity="0.62" fill="#1E1E1E" d="M2310,1373.9c-324.3-38.8-603.9-130.7-843.2-250.8c218.7,71.4,424.4,117.5,588.6,146.8
	C2210.8,1339.6,2310,1373.9,2310,1373.9z"/>
<circle opacity="0.62" fill="#2D2D2D" cx="1514.9" cy="137.8" r="38"/>
<circle opacity="0.62" fill="#1E1E1E" cx="1904" cy="450.1" r="157"/>
<circle opacity="0.62" fill="none" stroke="#2D2D2D" stroke-width="10" stroke-miterlimit="10" cx="1397.7" cy="471.1" r="261"/>
<circle opacity="0.62" fill="none" stroke="#2D2D2D" stroke-width="10" stroke-miterlimit="10" cx="1739.4" cy="170" r="95.6"/>
<circle opacity="0.62" fill="#1E1E1E" cx="250" cy="1034" r="163"/>
</svg>
